<svg preserveAspectRatio="none" width="100%" height="100%" overflow="visible" style="display: block;" viewBox="0 0 134 48.0014" fill="none" xmlns="http://www.w3.org/2000/svg">
<g id="BASFw_wh100db_4c">
<path id="Vector" d="M0 0.712358V24.5204H24.0038V0.712358H0ZM16.618 17.1947H7.38394V8.03577H16.618V17.1947Z" fill="var(--fill-0, #5A4352)"/>
<path id="Vector_2" d="M31.3891 8.03762H40.6213V17.1947H31.3891V8.03762Z" fill="var(--fill-0, #5A4352)"/>
<path id="Vector_3" d="M48.0066 0.712358H61.3801C66.289 0.712358 68.5313 3.95868 68.5313 6.9256C68.5313 9.06268 67.7031 10.4411 65.4804 11.7257C68.2837 12.7535 69.8078 14.6075 69.8078 17.4676C69.8078 20.8878 67.3038 24.5176 61.3978 24.5176H48.0006L48.0066 0.712358ZM55.3108 19.1435H60.1498C61.8754 19.1435 62.6491 17.9204 62.6491 16.8399C62.6491 17.3399 62.871 14.8675 60.3951 14.8675H55.3108V19.1435ZM55.3281 10.0854H59.2171C60.9949 10.0854 61.7033 9.26436 61.7033 8.06029C61.7033 7.78275 61.6165 6.22758 59.7273 6.22758H55.3281V10.0854Z" fill="var(--fill-0, #5A4352)"/>
<path id="Vector_4" d="M77.4132 0.712358H85.1455L93.9524 24.4885H86.0158L84.8541 20.9267H77.4454L76.4604 24.47H68.5845L77.4132 0.712358ZM80.965 7.77118L78.9238 15.7117H83.288L80.965 7.77118Z" fill="var(--fill-0, #5A4352)"/>
<path id="Vector_5" d="M106.284 7.78367H113.659C113.66 3.74682 110.597 0 103.33 0C95.3594 0 92.8914 4.36343 92.8914 7.55701C92.8914 12.7063 99.2447 14.0756 99.4419 14.1366C100.391 14.4331 104.335 15.4808 105.318 15.8301C106.172 16.1321 106.988 16.8098 106.988 17.7151C106.988 19.1028 105.318 19.773 103.928 19.773C103.036 19.773 100.037 19.4798 100.037 16.3269H92.4199C92.4199 20.5141 95.3239 25.1999 103.473 25.1999C112.464 25.1999 114.346 19.8803 114.346 17.0513C114.346 14.7426 113.027 12.1818 109.984 10.9625C108.153 10.2293 105.119 9.58677 103.595 9.14548C102.827 8.92206 100.267 8.40814 100.267 6.85899C100.267 4.87457 103.566 5.13129 103.084 5.13129C104.574 5.13129 106.284 5.96346 106.284 7.78367Z" fill="var(--fill-0, #5A4352)"/>
<path id="Vector_6" d="M115.596 0.706807H134V6.99036H122.95V11.1789H132.803V17.1831H122.915V24.5135H115.56L115.596 0.706807Z" fill="var(--fill-0, #5A4352)"/>
<path id="Vector_7" d="M9.57819 43.3558L9.57026 43.3262L7.26922 34.7487H5.82582L3.48887 43.3558H3.39653L3.38954 43.3252L1.35152 34.7487H0.0177218L2.67087 45.015H4.0555L6.46661 36.3215H6.55615L6.56408 36.3506L8.93694 45.015H10.3225L13.0918 34.7487H11.7869L9.66866 43.3558H9.57819Z" fill="var(--fill-0, #5A4352)"/>
<path id="Vector_8" d="M19.2165 38.8744C18.9491 38.4541 18.5887 38.0997 18.1626 37.8382C17.727 37.5686 17.172 37.4307 16.5112 37.4307C16.0265 37.4265 15.5465 37.5242 15.1027 37.7175C14.6802 37.905 14.3016 38.1775 13.9909 38.5178C13.6713 38.8733 13.4235 39.2865 13.2611 39.7348C13.0828 40.2324 12.9945 40.7573 13.0004 41.2853C13.0148 41.8167 13.0999 42.3438 13.2536 42.853C13.3896 43.3054 13.6185 43.725 13.9261 44.0853C14.228 44.4318 14.6055 44.7056 15.03 44.886C15.466 45.0765 15.9893 45.1742 16.583 45.1742C17.4276 45.1742 18.1378 44.9604 18.6928 44.5437C19.2366 44.1338 19.5962 43.52 19.7655 42.7165H18.6173C18.5063 43.2013 18.2791 43.5686 17.9443 43.8105C17.6095 44.0524 17.1603 44.1805 16.6278 44.1805C16.2136 44.1805 15.8499 44.113 15.5444 43.9756C15.2533 43.8485 14.9943 43.6589 14.7861 43.4205C14.5873 43.1885 14.4403 42.9174 14.3547 42.6249C14.2645 42.3174 14.2242 41.9976 14.2353 41.6776V41.6387H19.8909C19.9037 41.173 19.8621 40.7073 19.7669 40.251C19.6681 39.7625 19.4817 39.2956 19.2165 38.8726M14.2325 40.6303L14.2353 40.5878C14.2537 40.3017 14.3189 40.0205 14.4284 39.7551C14.535 39.5025 14.687 39.2711 14.877 39.0724C15.0691 38.8744 15.2996 38.717 15.5547 38.6098C15.835 38.4931 16.1367 38.4351 16.4407 38.4396C16.7395 38.4363 17.0358 38.4942 17.311 38.6098C17.5663 38.7182 17.7987 38.8735 17.9961 39.0673C18.1931 39.264 18.3496 39.4968 18.4568 39.7528C18.5693 40.0187 18.6362 40.3014 18.6546 40.5892L18.6578 40.6317L14.2325 40.6303Z" fill="var(--fill-0, #5A4352)"/>
<path id="Vector_9" d="M28.6138 44.181C28.2183 44.181 27.8727 44.1024 27.5878 43.9446C27.308 43.7935 27.0682 43.5787 26.8882 43.3179C26.7057 43.0462 26.5726 42.7448 26.4951 42.4274C26.4115 42.0924 26.3695 41.7484 26.3701 41.4033C26.3696 41.0326 26.409 40.6629 26.4876 40.3005C26.559 39.9631 26.6923 39.6415 26.8808 39.3518C27.0678 39.074 27.3206 38.8459 27.6172 38.6875C27.925 38.5215 28.3097 38.4373 28.7612 38.4373C29.2947 38.4373 29.7261 38.5714 30.0441 38.8379C30.3529 39.0964 30.5618 39.4646 30.6644 39.93H31.8723C31.8332 39.547 31.7173 39.1757 31.5314 38.8379C31.3571 38.5278 31.1187 38.2578 30.8318 38.0455C30.5377 37.8307 30.2055 37.6728 29.8525 37.5801C29.4627 37.4774 29.0609 37.4266 28.6576 37.4289C28.0723 37.4289 27.5523 37.5325 27.1121 37.7379C26.6841 37.9318 26.3066 38.2204 26.0087 38.5816C25.7078 38.9546 25.4841 39.3828 25.3502 39.8416C25.203 40.3492 25.1299 40.8751 25.1333 41.4033C25.1277 41.9221 25.2034 42.4386 25.3576 42.9344C25.4943 43.3738 25.7208 43.7806 26.0231 44.1292C26.323 44.4676 26.698 44.7322 27.1186 44.9022C27.5537 45.083 28.063 45.1732 28.6296 45.1732C29.5787 45.1732 30.3389 44.9244 30.8892 44.4308C31.4306 43.946 31.7753 43.2475 31.9152 42.3562H30.7232C30.6397 42.9265 30.4233 43.3738 30.0796 43.6921C29.7261 44.0159 29.2341 44.1806 28.6138 44.1806" fill="var(--fill-0, #5A4352)"/>
<path id="Vector_10" d="M35.7142 37.8295C35.2198 38.1655 34.8233 38.6246 34.5646 39.1608L34.5539 39.182H34.5133V37.6033H33.4239V45.015H34.5865V41.7239C34.58 41.2877 34.6292 40.8525 34.733 40.4287C34.82 40.0774 34.983 39.7491 35.2105 39.4665C35.4398 39.1926 35.7377 38.9833 36.0742 38.8596C36.4179 38.7269 36.8372 38.6584 37.3203 38.6533V37.4289C37.2914 37.4289 37.2634 37.4289 37.2355 37.4289C36.6292 37.4289 36.1162 37.5644 35.716 37.8309" fill="var(--fill-0, #5A4352)"/>
<path id="Vector_11" d="M43.6634 38.8744C43.3961 38.454 43.0356 38.0996 42.6094 37.8383C42.1743 37.5686 41.6188 37.4307 40.958 37.4307C40.4735 37.4264 39.9936 37.5242 39.55 37.7175C39.1276 37.9056 38.7491 38.1787 38.4387 38.5196C38.1191 38.8746 37.8711 39.2871 37.7084 39.7348C37.5304 40.233 37.4426 40.7586 37.4491 41.2872C37.4633 41.8185 37.5483 42.3456 37.7018 42.8548C37.8381 43.3072 38.0672 43.7268 38.3748 44.0871C38.6766 44.4336 39.0539 44.7075 39.4782 44.8878C39.9143 45.0784 40.4375 45.176 41.0317 45.176C41.8758 45.176 42.5861 44.9623 43.1415 44.5455C43.6848 44.1357 44.0449 43.5219 44.2142 42.7184H43.0641C42.9522 43.2041 42.7264 43.5704 42.3925 43.8123C42.0586 44.0543 41.6081 44.1824 41.0755 44.1824C40.6614 44.1824 40.2976 44.1149 39.9926 43.9775C39.7015 43.8505 39.4425 43.6609 39.2343 43.4224C39.0355 43.1904 38.8885 42.9192 38.8029 42.6268C38.7123 42.3187 38.6716 41.9983 38.6821 41.6776V41.6387H44.3373C44.3507 41.173 44.3093 40.7072 44.2137 40.251C44.1152 39.7625 43.9288 39.2955 43.6634 38.8726M38.6793 40.6303L38.6821 40.5878C38.7009 40.3017 38.7663 40.0205 38.8757 39.7551C38.981 39.5013 39.1324 39.2687 39.3225 39.0692C39.5145 38.8711 39.745 38.7138 40.0001 38.6066C40.2805 38.4899 40.5821 38.4319 40.8862 38.4364C41.1848 38.433 41.481 38.4909 41.7559 38.6066C42.0108 38.7153 42.2426 38.8708 42.4392 39.065C42.6365 39.2615 42.7932 39.4944 42.9004 39.7505C43.0135 40.0171 43.0811 40.3005 43.1005 40.5892L43.1037 40.6317L38.6793 40.6303Z" fill="var(--fill-0, #5A4352)"/>
<path id="Vector_12" d="M51.8728 43.9479C51.8387 43.8123 51.8219 43.6005 51.8219 43.3003V39.4485C51.8219 39.0234 51.7399 38.6741 51.578 38.41C51.4231 38.1511 51.2014 37.9378 50.9358 37.792C50.6562 37.6422 50.3519 37.5432 50.0372 37.4997C49.291 37.3928 48.521 37.4007 47.8383 37.5561C47.483 37.6343 47.1456 37.7777 46.8435 37.9789C46.5562 38.1745 46.3201 38.4351 46.1547 38.7393C45.9882 39.0446 45.8921 39.4198 45.8702 39.8555H47.0319C47.0687 39.3134 47.2651 38.9359 47.6191 38.737C47.973 38.5381 48.4235 38.4354 48.9538 38.4354C49.1537 38.4358 49.3534 38.4504 49.5512 38.4794C49.7453 38.5054 49.9331 38.5657 50.1057 38.6575C50.2742 38.7496 50.4152 38.8841 50.5147 39.0474C50.6206 39.2176 50.6742 39.4448 50.6742 39.7214C50.6742 39.9628 50.601 40.152 50.456 40.2792C50.2906 40.4168 50.0949 40.5138 49.8847 40.5623C49.6168 40.6323 49.344 40.6818 49.0685 40.7104C48.7663 40.7418 48.4408 40.7932 48.1003 40.8602C47.7818 40.9176 47.467 40.9911 47.1611 41.0776C46.8728 41.157 46.6005 41.2855 46.3566 41.4574C46.12 41.6269 45.9263 41.8486 45.7909 42.105C45.6487 42.3682 45.5759 42.7147 45.5759 43.1296C45.5759 43.4996 45.6417 43.817 45.7699 44.0769C45.8915 44.3286 46.073 44.547 46.2988 44.7134C46.5323 44.8832 46.798 45.0043 47.0799 45.0696C47.3928 45.1425 47.7132 45.1782 48.0346 45.176C48.5316 45.1802 49.0249 45.0907 49.4882 44.9123C49.9465 44.7262 50.3502 44.4289 50.6626 44.0478L50.733 43.9622V44.0723C50.733 44.4641 50.8262 44.75 51.0053 44.9197C51.1844 45.0895 51.4363 45.176 51.745 45.176C52.1041 45.176 52.3909 45.1191 52.597 45.0053V44.1264C52.4872 44.162 52.3726 44.1813 52.2571 44.1838C52.0407 44.1838 51.9129 44.107 51.8737 43.9525M50.6612 42.4529C50.6564 42.6509 50.6107 42.8458 50.5268 43.0255C50.4277 43.2403 50.2848 43.4325 50.1071 43.5899C49.8937 43.7764 49.6467 43.9214 49.3791 44.0173C49.083 44.1283 48.7262 44.1856 48.3125 44.1856C48.1255 44.1863 47.9389 44.1666 47.7562 44.1269C47.5848 44.0935 47.4216 44.0277 47.2753 43.9331C47.1385 43.8421 47.0243 43.7214 46.9414 43.5801C46.851 43.4165 46.8061 43.2319 46.8113 43.0454C46.8113 42.7304 46.8855 42.4751 47.0319 42.2905C47.1801 42.1034 47.3743 41.9572 47.5957 41.8659C47.8419 41.7621 48.1005 41.6902 48.3652 41.6521C48.632 41.6105 48.9151 41.5721 49.2047 41.536C49.4845 41.5023 49.7499 41.4579 49.9975 41.4065C50.2121 41.3675 50.4158 41.2835 50.5949 41.16L50.6588 41.1109L50.6612 42.4529Z" fill="var(--fill-0, #5A4352)"/>
<path id="Vector_13" d="M64.0537 38.8744C63.7864 38.4539 63.4257 38.0995 62.9993 37.8383C62.5637 37.5686 62.0078 37.4307 61.3474 37.4307C60.8629 37.4264 60.383 37.5242 59.9395 37.7175C59.5167 37.9054 59.1381 38.1785 58.8277 38.5196C58.508 38.8745 58.2602 39.287 58.0978 39.7348C57.9203 40.2325 57.8324 40.7574 57.838 41.2853C57.8514 41.8167 57.9364 42.344 58.0908 42.853C58.226 43.306 58.4546 43.7262 58.7619 44.0871C59.0643 44.4329 59.4415 44.7066 59.8653 44.8878C60.3018 45.0784 60.8251 45.176 61.4197 45.176C62.2638 45.176 62.9727 44.9623 63.5277 44.5455C64.0705 44.1357 64.432 43.5219 64.6003 42.7184H63.454C63.3421 43.2031 63.1154 43.5704 62.7806 43.8123C62.4457 44.0543 61.9971 44.1824 61.464 44.1824C61.0508 44.1824 60.6866 44.1149 60.3807 43.9775C60.0896 43.8504 59.8306 43.6608 59.6223 43.4224C59.4236 43.1903 59.2766 42.9192 59.191 42.6268C59.1012 42.3195 59.0614 42 59.073 41.6804V41.6415H64.7272C64.7401 41.1757 64.6981 40.71 64.6022 40.2538C64.5035 39.7655 64.3176 39.2987 64.0533 38.8753M59.0954 40.6331L59.0982 40.5905C59.1153 40.3042 59.1807 40.0228 59.2917 39.7579C59.3957 39.5037 59.5468 39.271 59.7371 39.0719C59.9293 38.8739 60.16 38.7166 60.4152 38.6094C60.6956 38.4927 60.9972 38.4347 61.3013 38.4391C61.7311 38.4331 62.153 38.555 62.5124 38.7891C62.8717 39.0232 63.1521 39.3587 63.3174 39.7524C63.4312 40.0188 63.4992 40.3023 63.5184 40.591L63.5212 40.6336L59.0954 40.6331Z" fill="var(--fill-0, #5A4352)"/>
<path id="Vector_14" d="M73.4668 44.181C73.0723 44.181 72.7267 44.1024 72.4408 43.9446C72.1611 43.7933 71.9214 43.5785 71.7413 43.3179C71.5584 43.0462 71.4251 42.7448 71.3472 42.4274C71.2645 42.0922 71.2228 41.7484 71.2232 41.4033C71.2222 41.0325 71.2617 40.6628 71.3412 40.3005C71.4119 39.9635 71.5447 39.6424 71.7329 39.3532C71.9204 39.0751 72.1735 38.8466 72.4702 38.6875C72.7766 38.5215 73.1618 38.4373 73.6151 38.4373C74.1468 38.4373 74.5791 38.5714 74.8967 38.8379C75.2078 39.0964 75.4158 39.4646 75.517 39.93H76.7258C76.6865 39.5466 76.5706 39.1749 76.3849 38.8365C76.2101 38.5271 75.9718 38.2576 75.6853 38.0455C75.3908 37.8314 75.0587 37.6736 74.706 37.5801C74.316 37.4775 73.9141 37.4266 73.5107 37.4289C72.9259 37.4289 72.4049 37.5325 71.9656 37.7379C71.5375 37.9313 71.16 38.22 70.8627 38.5816C70.5613 38.9543 70.3375 39.3826 70.2042 39.8416C70.0572 40.3493 69.9842 40.8751 69.9873 41.4033C69.982 41.922 70.0575 42.4385 70.2112 42.9344C70.3477 43.3732 70.5733 43.7798 70.8739 44.1292C71.1744 44.467 71.5494 44.7315 71.9698 44.9022C72.4068 45.083 72.9151 45.1732 73.4799 45.1732C74.4317 45.1732 75.1915 44.9244 75.7418 44.4308C76.2809 43.9474 76.6279 43.2489 76.7678 42.3562H75.579C75.4965 42.9265 75.281 43.3738 74.935 43.6921C74.5842 44.0159 74.0908 44.1805 73.4692 44.1805" fill="var(--fill-0, #5A4352)"/>
<path id="Vector_15" d="M83.9367 38.1847C83.724 37.9385 83.4535 37.7479 83.149 37.6296C82.8226 37.4969 82.4112 37.4289 81.9225 37.4289C81.6916 37.4304 81.4615 37.4547 81.2355 37.5015C81.0019 37.5484 80.7747 37.6228 80.5588 37.7231C80.3464 37.8209 80.1504 37.9505 79.9777 38.1075C79.8075 38.2615 79.6317 38.4544 79.537 38.6801L79.5277 38.7046H79.4717V34.7487H78.3096V45.015H79.4717V40.8246C79.4683 40.5034 79.5155 40.1836 79.6116 39.8768C79.7004 39.5981 79.8445 39.3398 80.0356 39.1173C80.2296 38.8977 80.4718 38.7252 80.7435 38.613C81.0257 38.496 81.3628 38.4373 81.7457 38.4373C82.2307 38.4373 82.6197 38.576 82.8991 38.8536C83.1784 39.1311 83.3188 39.509 83.3188 39.9827V45.015H84.4847V40.1298C84.4878 39.7595 84.4464 39.39 84.3616 39.0294C84.2885 38.719 84.1436 38.4298 83.9381 38.1847" fill="var(--fill-0, #5A4352)"/>
<path id="Vector_16" d="M92.2772 38.8744C92.0105 38.453 91.6499 38.0979 91.2232 37.8364C90.7881 37.5667 90.2322 37.4289 89.5713 37.4289C89.0867 37.4245 88.6066 37.5223 88.1629 37.7157C87.7404 37.9039 87.3618 38.177 87.0511 38.5178C86.732 38.8737 86.4843 39.2868 86.3212 39.7348C86.1433 40.2324 86.0553 40.7573 86.0615 41.2853C86.0752 41.8167 86.1601 42.3438 86.3138 42.853C86.4502 43.3054 86.6795 43.7249 86.9872 44.0853C87.2891 44.4314 87.6662 44.7052 88.0902 44.886C88.5262 45.0766 89.0504 45.1742 89.6441 45.1742C90.4882 45.1742 91.1961 44.9604 91.7525 44.5437C92.2954 44.1338 92.6563 43.5209 92.8252 42.7165H91.6798C91.5683 43.2013 91.3416 43.5686 91.0054 43.8105C90.6692 44.0524 90.2214 44.1806 89.6898 44.1806C89.2761 44.1806 88.9114 44.113 88.6064 43.9756C88.3152 43.8488 88.0562 43.6592 87.8481 43.4206C87.6493 43.1886 87.5024 42.9174 87.4172 42.6249C87.3262 42.3179 87.2859 41.9983 87.2978 41.6785V41.6397H92.952C92.965 41.1738 92.9229 40.7081 92.8266 40.2519C92.7283 39.7636 92.5424 39.2967 92.2776 38.8735M87.2931 40.6313L87.2969 40.5887C87.3145 40.3025 87.3798 40.0212 87.4899 39.7561C87.594 39.5018 87.7453 39.2691 87.9358 39.0701C88.1283 38.8724 88.3589 38.7151 88.6139 38.6075C88.8942 38.4905 89.1959 38.4326 89.5 38.4373C89.788 38.434 90.0738 38.4879 90.3406 38.5957C90.6073 38.7034 90.8497 38.863 91.0534 39.065C91.2507 39.262 91.4079 39.4947 91.5165 39.7505C91.6289 40.0173 91.6962 40.3007 91.7157 40.5892L91.7194 40.6317L87.2931 40.6313Z" fill="var(--fill-0, #5A4352)"/>
<path id="Vector_17" d="M104.279 37.928C104.05 37.7504 103.787 37.6221 103.505 37.551C103.172 37.4663 102.829 37.4252 102.485 37.4289C102.016 37.4248 101.552 37.5379 101.138 37.7578C100.734 37.9753 100.394 38.2943 100.153 38.6829L100.106 38.7555L100.078 38.6755C99.9279 38.224 99.6634 37.9007 99.2955 37.7124C98.9065 37.5196 98.4767 37.4217 98.0419 37.427C96.9996 37.427 96.1452 37.8507 95.5921 38.6847L95.58 38.7028H95.5333V37.6033H94.4439V45.015H95.6061V40.3893C95.6139 40.1997 95.6514 40.0125 95.7171 39.8342C95.7983 39.6015 95.919 39.3842 96.0738 39.1917C96.2503 38.9742 96.4682 38.7933 96.7151 38.6593C96.9767 38.5117 97.2953 38.4373 97.6618 38.4373C97.9482 38.4373 98.1874 38.4794 98.3721 38.5645C98.5515 38.6423 98.7061 38.7672 98.8193 38.9257C98.9335 39.0888 99.0129 39.2733 99.0525 39.4679C99.0983 39.6901 99.1203 39.9164 99.1183 40.1432V45.015H100.282V40.3893C100.282 39.8028 100.461 39.3254 100.818 38.972C101.175 38.6186 101.672 38.4382 102.293 38.4382C102.598 38.4382 102.853 38.4845 103.046 38.5714C103.231 38.6518 103.391 38.7795 103.51 38.9415C103.623 39.1049 103.699 39.2906 103.733 39.4859C103.775 39.7034 103.795 39.9243 103.794 40.1455V45.015H104.956V39.5636C104.956 39.1843 104.896 38.8564 104.777 38.5858C104.667 38.3298 104.496 38.1041 104.279 37.928Z" fill="var(--fill-0, #5A4352)"/>
<path id="Vector_18" d="M108.153 36.1772H106.991V34.7487H108.153V36.1772ZM108.153 37.6033H106.991V45.015H108.153V37.6033Z" fill="var(--fill-0, #5A4352)"/>
<path id="Vector_19" d="M115.102 44.688C115.399 44.5108 115.649 44.267 115.833 43.9761C116.02 43.6852 116.113 43.3119 116.113 42.8659C116.113 42.5204 116.044 42.2248 115.907 41.9871C115.77 41.7544 115.584 41.5541 115.362 41.4001C115.123 41.2359 114.861 41.1079 114.584 41.0203C114.285 40.9226 113.981 40.8408 113.674 40.7751C113.382 40.7076 113.091 40.6428 112.797 40.5795C112.526 40.5233 112.261 40.4459 112.002 40.3482C111.785 40.2671 111.586 40.1466 111.413 39.9929C111.336 39.9218 111.275 39.8352 111.233 39.7388C111.192 39.6424 111.172 39.5384 111.174 39.4337C111.167 39.2559 111.221 39.081 111.329 38.9383C111.434 38.8091 111.569 38.7064 111.723 38.6385C111.891 38.5608 112.07 38.5078 112.254 38.4812C112.647 38.4147 113.048 38.4225 113.438 38.5044C113.635 38.5455 113.824 38.6173 113.998 38.7172C114.166 38.8157 114.31 38.9513 114.417 39.1136C114.528 39.2905 114.594 39.4912 114.611 39.6987H115.773C115.741 39.269 115.645 38.9063 115.489 38.6182C115.335 38.331 115.11 38.0873 114.836 37.91C114.548 37.7284 114.228 37.6028 113.893 37.5399C113.505 37.4653 113.112 37.4288 112.717 37.4312C112.383 37.4324 112.05 37.4734 111.726 37.5533C111.41 37.6288 111.108 37.7545 110.831 37.9257C110.571 38.0919 110.351 38.313 110.186 38.5733C110.021 38.8356 109.937 39.1557 109.937 39.5229C109.937 39.9943 110.057 40.3648 110.293 40.6257C110.54 40.8991 110.848 41.1119 111.192 41.2474C111.574 41.4018 111.97 41.5176 112.375 41.593C112.799 41.6734 113.2 41.766 113.568 41.8705C113.896 41.9539 114.209 42.09 114.492 42.2734C114.746 42.4455 114.875 42.6999 114.875 43.0306C114.875 43.2712 114.814 43.4714 114.689 43.6278C114.569 43.783 114.41 43.9046 114.228 43.9807C114.036 44.0615 113.834 44.1161 113.626 44.1431C113.173 44.2098 112.712 44.1998 112.262 44.1135C112.032 44.069 111.812 43.9862 111.609 43.8688C111.415 43.7554 111.252 43.5966 111.134 43.4062C111.015 43.2022 110.948 42.9719 110.94 42.736H109.782C109.804 43.1749 109.902 43.551 110.068 43.8586C110.231 44.1669 110.467 44.431 110.757 44.6279C111.059 44.828 111.396 44.9705 111.751 45.0479C112.469 45.214 113.281 45.2214 114.078 45.0701C114.44 45.0059 114.788 44.8777 115.104 44.6917" fill="var(--fill-0, #5A4352)"/>
<path id="Vector_20" d="M119.261 35.358H118.097V37.6033H116.858V38.6108H118.097V43.4178C118.097 43.7596 118.131 44.0395 118.199 44.2458C118.251 44.4294 118.356 44.594 118.501 44.7195C118.657 44.8408 118.842 44.9204 119.038 44.9507C119.307 44.998 119.581 45.0197 119.855 45.0155H120.766V44.0076H120.235C120.075 44.0089 119.915 44.002 119.755 43.9867C119.648 43.9779 119.544 43.9428 119.453 43.8845C119.376 43.8308 119.321 43.7515 119.299 43.6611C119.27 43.5437 119.257 43.423 119.261 43.3021V38.6108H120.81V37.6033H119.261V35.358Z" fill="var(--fill-0, #5A4352)"/>
<path id="Vector_21" d="M55.4722 35.358H54.3063V37.6033H53.0667V38.6108H54.3063V43.4178C54.3063 43.7596 54.3408 44.0395 54.4079 44.2458C54.4598 44.4296 54.5649 44.5943 54.7101 44.7195C54.8661 44.841 55.0509 44.9206 55.2469 44.9507C55.5166 44.998 55.7902 45.0197 56.064 45.0155H56.9743V44.0076H56.4441C56.284 44.009 56.124 44.002 55.9647 43.9867C55.8564 43.9779 55.752 43.9428 55.6606 43.8845C55.5846 43.8303 55.5304 43.7512 55.5076 43.6611C55.479 43.5436 55.4665 43.4229 55.4703 43.3021V38.6108H57.0196V37.6033H55.4703L55.4722 35.358Z" fill="var(--fill-0, #5A4352)"/>
<path id="Vector_22" d="M123.693 39.2505L123.683 39.2713H123.642V37.6033H122.552V45.015H123.714V41.8108C123.709 41.376 123.758 40.9422 123.862 40.5198C123.949 40.1683 124.111 39.8395 124.337 39.5558C124.567 39.2824 124.864 39.0731 125.2 38.9484C125.544 38.8152 125.964 38.7481 126.446 38.7435V37.5177C125.803 37.5057 125.263 37.6407 124.843 37.9183C124.349 38.2551 123.953 38.7144 123.693 39.2505Z" fill="var(--fill-0, #5A4352)"/>
<path id="Vector_23" d="M130.288 46.9509C130.451 46.6521 130.593 46.343 130.715 46.0257L133.983 37.6037H132.755L130.635 43.7332H130.55L130.541 43.7055L128.343 37.6033H127.03L130.008 45.0127L130.002 45.0261L129.489 46.2862C129.391 46.49 129.248 46.669 129.07 46.8098C128.907 46.9319 128.691 46.9925 128.431 46.9925C128.3 46.9922 128.169 46.9718 128.045 46.9319C127.942 46.9005 127.841 46.8662 127.74 46.8329V47.8807C127.866 47.9246 127.997 47.9556 128.129 47.9732C128.273 47.9916 128.417 48.0009 128.562 48.0009C128.805 48.0057 129.047 47.9699 129.279 47.895C129.484 47.8211 129.671 47.7055 129.828 47.5555C130.011 47.3778 130.166 47.1736 130.288 46.95" fill="var(--fill-0, #5A4352)"/>
</g>
</svg>
