<svg preserveAspectRatio="none" width="100%" height="100%" overflow="visible" style="display: block;" viewBox="0 0 145.452 38.802" fill="none" xmlns="http://www.w3.org/2000/svg">
<g id="n">
<path id="Vector" d="M127.536 0L140.353 31.068C142.196 35.596 143.045 36.502 145.452 36.782L144.816 38.802H130.512L131.148 36.712C132.99 36.642 133.697 35.944 133.697 34.97C133.697 34.482 133.343 33.368 132.848 32.254L130.227 25.914H117.906L115.639 31.834C115.215 32.88 114.79 33.994 114.79 34.69C114.79 36.084 115.781 36.642 117.977 36.782L117.339 38.802H106.222L106.86 36.782C109.48 36.502 110.472 34.762 111.958 30.93L123.927 0H127.536ZM14.3041 0C22.0228 0 27.4056 2.996 27.4056 9.822C27.4056 13.584 24.8564 16.51 21.9517 18.042C26.2011 19.088 30.3794 22.502 30.3794 27.168C30.3794 34.274 24.2897 38.802 15.1552 38.802H0.495625L1.13344 36.782C3.04484 36.642 4.03609 35.248 4.03609 33.298V5.572C4.03609 2.926 2.62031 2.092 0 2.02L0.637812 0H14.3041ZM46.9503 0C54.8112 0 60.6876 3.414 60.6876 9.96C60.6876 15.186 56.1559 18.39 52.4733 19.436C52.9689 19.854 53.7489 20.69 54.598 22.222L57.7139 27.864C61.1122 34.064 63.2389 36.504 65.7861 36.782L65.1503 38.802H57.005L56.8628 38.732C54.8112 37.06 53.2512 35.526 50.5619 30.512L46.4547 22.78C45.9591 21.874 45.3212 21.176 43.4078 21.176H42.9142V33.228C42.9142 35.876 44.33 36.712 46.9503 36.782L46.3125 38.8H32.2217L32.8575 36.78C34.7709 36.64 35.7622 35.246 35.7622 33.296V5.572C35.7622 2.926 34.3444 2.092 31.7241 2.02L32.3619 0H46.9503ZM81.4369 0L80.799 2.02C78.8165 2.16 77.8253 3.552 77.8253 5.504V33.228C77.8253 35.876 79.2411 36.712 81.8614 36.782L81.2236 38.802H67.1328L67.7686 36.782C69.682 36.642 70.6733 35.248 70.6733 33.298V5.572C70.6733 2.926 69.2555 2.092 66.6372 2.02L67.273 0H81.4369ZM114.506 0L113.161 4.806H111.532C111.107 3.832 110.754 3.622 108.629 3.622H101.195V33.228C101.195 35.876 102.397 36.712 104.664 36.782L104.026 38.802H89.9336L90.5714 36.782C92.8383 36.642 94.0428 35.248 94.0428 33.298V3.62H87.5265C85.8264 3.62 84.8351 3.83 83.915 4.804H82.1458L83.6326 0H114.506ZM14.6616 19.992H11.1881V32.392C11.1881 34.622 12.5328 35.736 14.5864 35.736H14.7997C19.2623 35.736 22.2341 32.602 22.2341 27.516C22.2341 22.57 19.4025 19.992 14.6575 19.992H14.6616ZM123.927 9.962L119.182 22.362H128.741L123.927 9.962ZM45.6016 2.926C43.6191 2.926 42.9122 3.622 42.9122 5.434V18.32H45.2481C49.2131 18.32 52.7536 15.044 52.7536 10.586C52.7536 5.99 50.0642 2.924 45.6036 2.924L45.6016 2.926ZM13.8775 2.926C11.895 2.926 11.1861 3.622 11.1861 5.504V17.066H14.0197C17.6312 17.066 20.1094 14.35 20.1094 10.1C20.1094 5.782 17.9847 2.926 13.8775 2.926Z" fill="var(--fill-0, black)"/>
</g>
</svg>
