<svg preserveAspectRatio="none" width="100%" height="100%" overflow="visible" style="display: block;" viewBox="0 0 136 48" fill="none" xmlns="http://www.w3.org/2000/svg">
<g id="layer1">
<path id="path36902" d="M111.681 0C106.26 0 101.226 1.78065 97.1207 4.80002C93.0159 1.78065 87.9818 0 82.5604 0C77.139 0 72.1048 1.78065 68 4.80002C63.8952 1.78065 58.9385 0 53.4396 0C48.0182 0 42.984 1.78065 38.8793 4.80002C34.8519 1.78065 29.8177 0 24.3189 0C10.9203 0 0 10.7613 0 24C0 37.2387 10.9203 48 24.3189 48C29.7403 48 34.7745 46.2194 38.8793 43.2C42.984 46.2194 48.0182 48 53.4396 48C58.861 48 63.8952 46.2194 68 43.2C72.0273 46.2194 77.0615 48 82.5604 48C87.9818 48 93.0159 46.2194 97.1207 43.2C101.148 46.2194 106.182 48 111.681 48C125.08 48 136 37.2387 136 24C136 10.7613 125.08 0 111.681 0ZM97.1207 36.3871C94.1777 33.0581 92.3964 28.7226 92.3964 24C92.3964 19.2774 94.1777 14.942 97.1207 11.6129C100.064 14.942 101.845 19.2774 101.845 24C101.845 28.7226 100.064 33.0581 97.1207 36.3871ZM68 36.3871C65.057 33.0581 63.2756 28.7226 63.2756 24C63.2756 19.2774 65.057 14.942 68 11.6129C70.943 14.942 72.7244 19.2774 72.7244 24C72.7244 28.7226 70.943 33.0581 68 36.3871ZM38.8793 36.3871C35.9362 33.0581 34.1549 28.7226 34.1549 24C34.1549 19.2774 35.9362 14.942 38.8793 11.6129C41.8223 14.942 43.6036 19.2774 43.6036 24C43.6812 28.7226 41.8223 33.0581 38.8793 36.3871ZM5.03416 24C5.03416 13.5484 13.7084 5.03226 24.3189 5.03226C28.2688 5.03226 31.9863 6.19356 35.0843 8.28387C31.3667 12.4645 29.1207 17.9613 29.1207 24C29.1207 30.0387 31.3667 35.5355 35.0843 39.7161C31.9863 41.7291 28.3462 42.9678 24.3189 42.9678C13.7084 42.9678 5.03416 34.4516 5.03416 24ZM42.6743 39.7161C46.3918 35.5355 48.6378 30.0387 48.6378 24C48.6378 17.9613 46.3918 12.4645 42.6743 8.28387C45.7722 6.27096 49.4123 5.03226 53.4396 5.03226C57.467 5.03226 61.107 6.19356 64.205 8.28387C60.4874 12.4645 58.164 17.9613 58.164 24C58.164 30.0387 60.41 35.5355 64.205 39.7161C61.107 41.7291 57.467 42.9678 53.4396 42.9678C49.4897 42.9678 45.7722 41.7291 42.6743 39.7161ZM71.795 39.7161C75.5125 35.5355 77.836 30.0387 77.836 24C77.836 17.9613 75.59 12.4645 71.795 8.28387C74.8929 6.27096 78.533 5.03226 82.5604 5.03226C86.5877 5.03226 90.2278 6.19356 93.3257 8.28387C89.6082 12.4645 87.2847 17.9613 87.2847 24C87.2847 30.0387 89.5307 35.5355 93.3257 39.7161C90.2278 41.7291 86.5877 42.9678 82.5604 42.9678C78.533 42.9678 74.8929 41.7291 71.795 39.7161ZM111.681 42.9678C107.731 42.9678 104.014 41.8065 100.916 39.7161C104.633 35.5355 106.957 30.0387 106.957 24C106.957 17.9613 104.711 12.4645 100.916 8.28387C104.014 6.27096 107.654 5.03226 111.681 5.03226C122.292 5.03226 130.966 13.5484 130.966 24C130.966 34.4516 122.292 42.9678 111.681 42.9678Z" fill="var(--fill-0, #5A4352)"/>
</g>
</svg>
