<svg width="40" height="40" viewBox="0 0 40 40" fill="none" xmlns="http://www.w3.org/2000/svg">
<path fill-rule="evenodd" clip-rule="evenodd" d="M20 0C31.0457 0 40 8.9543 40 20C40 31.0457 31.0457 40 20 40C8.9543 40 0 31.0457 0 20C0 8.9543 8.9543 0 20 0ZM31.001 11C30.7356 11 30.4806 11.1053 30.293 11.293L15.001 26.5859L8.70801 20.293C8.52047 20.1054 8.26619 19.9991 8.00098 19.999C7.73561 19.999 7.48061 20.1053 7.29297 20.293C7.1055 20.4806 7.00002 20.7348 7 21C7 21.2654 7.10533 21.5204 7.29297 21.708L14.293 28.708C14.3857 28.8008 14.496 28.8745 14.6172 28.9248C14.7386 28.9751 14.8696 29.001 15.001 29.001C15.1322 29.0009 15.2625 28.9751 15.3838 28.9248C15.505 28.8745 15.6152 28.8008 15.708 28.708L31.708 12.708C31.8956 12.5204 32.001 12.2654 32.001 12C32.001 11.7347 31.8955 11.4806 31.708 11.293C31.5205 11.1054 31.2662 11.0001 31.001 11Z" fill="#E1F7D8"/>
</svg>
