<svg xmlns="http://www.w3.org/2000/svg" width="136" height="48" viewBox="0 0 136 48" fill="none"><g clip-path="url(#clip0_12698_4755)"><path d="M111.681 -4.19617e-05C106.26 -4.19617e-05 101.226 1.78061 97.1207 4.79998C93.0159 1.78061 87.9818 -4.19617e-05 82.5604 -4.19617e-05C77.139 -4.19617e-05 72.1048 1.78061 68 4.79998C63.8952 1.78061 58.9385 -4.19617e-05 53.4396 -4.19617e-05C48.0182 -4.19617e-05 42.984 1.78061 38.8793 4.79998C34.8519 1.78061 29.8177 -4.19617e-05 24.3189 -4.19617e-05C10.9203 -4.19617e-05 0 10.7613 0 24C0 37.2387 10.9203 48 24.3189 48C29.7403 48 34.7745 46.2193 38.8793 43.2C42.984 46.2193 48.0182 48 53.4396 48C58.861 48 63.8952 46.2193 68 43.2C72.0273 46.2193 77.0615 48 82.5604 48C87.9818 48 93.0159 46.2193 97.1207 43.2C101.148 46.2193 106.182 48 111.681 48C125.08 48 136 37.2387 136 24C136 10.7613 125.08 -4.19617e-05 111.681 -4.19617e-05ZM97.1207 36.3871C94.1777 33.058 92.3964 28.7225 92.3964 24C92.3964 19.2774 94.1777 14.9419 97.1207 11.6129C100.064 14.9419 101.845 19.2774 101.845 24C101.845 28.7225 100.064 33.058 97.1207 36.3871ZM68 36.3871C65.057 33.058 63.2756 28.7225 63.2756 24C63.2756 19.2774 65.057 14.9419 68 11.6129C70.943 14.9419 72.7244 19.2774 72.7244 24C72.7244 28.7225 70.943 33.058 68 36.3871ZM38.8793 36.3871C35.9362 33.058 34.1549 28.7225 34.1549 24C34.1549 19.2774 35.9362 14.9419 38.8793 11.6129C41.8223 14.9419 43.6036 19.2774 43.6036 24C43.6812 28.7225 41.8223 33.058 38.8793 36.3871ZM5.03416 24C5.03416 13.5484 13.7084 5.03221 24.3189 5.03221C28.2688 5.03221 31.9863 6.19352 35.0843 8.28383C31.3667 12.4645 29.1207 17.9612 29.1207 24C29.1207 30.0387 31.3667 35.5354 35.0843 39.7161C31.9863 41.729 28.3462 42.9677 24.3189 42.9677C13.7084 42.9677 5.03416 34.4516 5.03416 24ZM42.6743 39.7161C46.3918 35.5354 48.6378 30.0387 48.6378 24C48.6378 17.9612 46.3918 12.4645 42.6743 8.28383C45.7722 6.27092 49.4123 5.03221 53.4396 5.03221C57.467 5.03221 61.107 6.19352 64.205 8.28383C60.4874 12.4645 58.164 17.9612 58.164 24C58.164 30.0387 60.41 35.5354 64.205 39.7161C61.107 41.729 57.467 42.9677 53.4396 42.9677C49.4897 42.9677 45.7722 41.729 42.6743 39.7161ZM71.795 39.7161C75.5125 35.5354 77.836 30.0387 77.836 24C77.836 17.9612 75.59 12.4645 71.795 8.28383C74.8929 6.27092 78.533 5.03221 82.5604 5.03221C86.5877 5.03221 90.2278 6.19352 93.3257 8.28383C89.6082 12.4645 87.2847 17.9612 87.2847 24C87.2847 30.0387 89.5307 35.5354 93.3257 39.7161C90.2278 41.729 86.5877 42.9677 82.5604 42.9677C78.533 42.9677 74.8929 41.729 71.795 39.7161ZM111.681 42.9677C107.731 42.9677 104.014 41.8064 100.916 39.7161C104.633 35.5354 106.957 30.0387 106.957 24C106.957 17.9612 104.711 12.4645 100.916 8.28383C104.014 6.27092 107.654 5.03221 111.681 5.03221C122.292 5.03221 130.966 13.5484 130.966 24C130.966 34.4516 122.292 42.9677 111.681 42.9677Z" fill="#5A4352"/></g><defs><clipPath id="clip0_12698_4755"><rect width="136" height="48" fill="white"/></clipPath></defs></svg>