<svg xmlns="http://www.w3.org/2000/svg" width="195" height="40" viewBox="0 0 195 40" fill="none"><g clip-path="url(#clip0_12698_4691)"><mask id="mask0_12698_4691" style="mask-type:luminance" maskUnits="userSpaceOnUse" x="0" y="27" width="41" height="13"><path d="M40.6636 27.296V40H0V27.296H40.6636Z" fill="white"/></mask><g mask="url(#mask0_12698_4691)"><mask id="mask1_12698_4691" style="mask-type:luminance" maskUnits="userSpaceOnUse" x="27" y="27" width="14" height="14"><path d="M34.2245 27.296C37.7305 27.296 40.6636 30.182 40.6636 33.7C40.6566 35.3788 39.9758 36.9868 38.7696 38.1734C37.5634 39.3599 35.9296 40.0287 34.2245 40.034C30.6475 40.034 27.7144 37.218 27.7144 33.7C27.7213 32.0026 28.4097 30.3768 29.6292 29.1771C30.8488 27.9775 32.5006 27.3013 34.2245 27.296Z" fill="white"/></mask><g mask="url(#mask1_12698_4691)"><path d="M27.7144 27.296H40.6636V40H27.7144V27.296Z" fill="#5A4352"/></g><mask id="mask2_12698_4691" style="mask-type:luminance" maskUnits="userSpaceOnUse" x="13" y="27" width="14" height="14"><path d="M20.3267 27.296C23.9038 27.296 26.7658 30.182 26.7658 33.7C26.769 34.5332 26.6046 35.3588 26.2821 36.1291C25.9596 36.8994 25.4853 37.5991 24.8866 38.188C24.288 38.7769 23.5768 39.2432 22.7942 39.5601C22.0115 39.8769 21.1729 40.038 20.3267 40.034C16.7517 40.034 13.8166 37.218 13.8166 33.7C13.8235 32.0026 14.5118 30.3768 15.7314 29.1771C16.951 27.9775 18.6028 27.3013 20.3267 27.296Z" fill="white"/></mask><g mask="url(#mask2_12698_4691)"><path d="M13.8166 27.296H26.7658V40H13.8166V27.296Z" fill="#5A4352"/></g><mask id="mask3_12698_4691" style="mask-type:luminance" maskUnits="userSpaceOnUse" x="-1" y="27" width="14" height="14"><path d="M6.33344 27.296C9.98156 27.296 12.9147 30.182 12.9147 33.7C12.9147 37.22 9.98156 40.034 6.33344 40.034C2.75438 40.034 -0.0345306 37.218 -0.0345306 33.7C-0.0345306 30.18 2.75438 27.296 6.33344 27.296Z" fill="white"/></mask><g mask="url(#mask3_12698_4691)"><path d="M0 27.296H12.9147V40H0V27.296Z" fill="#5A4352"/></g></g><mask id="mask4_12698_4691" style="mask-type:luminance" maskUnits="userSpaceOnUse" x="27" y="0" width="14" height="13"><path d="M34.2245 0C37.7305 0 40.6636 2.8 40.6636 6.3C40.6636 9.87 37.7305 12.74 34.2245 12.74C32.4941 12.7352 30.8365 12.0542 29.6157 10.8467C28.395 9.63912 27.7111 8.00377 27.7144 6.3C27.7144 2.8 30.6475 0 34.2245 0Z" fill="white"/></mask><g mask="url(#mask4_12698_4691)"><path d="M27.7144 0H40.6636V12.74H27.7144V0Z" fill="#5A4352"/></g><mask id="mask5_12698_4691" style="mask-type:luminance" maskUnits="userSpaceOnUse" x="0" y="0" width="27" height="13"><path d="M26.7881 0V12.74H0V0H26.7881Z" fill="white"/></mask><g mask="url(#mask5_12698_4691)"><mask id="mask6_12698_4691" style="mask-type:luminance" maskUnits="userSpaceOnUse" x="13" y="0" width="14" height="13"><path d="M20.3491 0C23.9261 0 26.7881 2.8 26.7881 6.3C26.7881 9.868 23.9261 12.738 20.3491 12.738C18.6187 12.7332 16.961 12.0522 15.7403 10.8447C14.5196 9.63712 13.8357 8.00177 13.8389 6.298C13.8389 2.8 16.772 0 20.3491 0Z" fill="white"/></mask><g mask="url(#mask6_12698_4691)"><path d="M13.8389 0H26.7881V12.738H13.8389V0Z" fill="#5A4352"/></g><mask id="mask7_12698_4691" style="mask-type:luminance" maskUnits="userSpaceOnUse" x="-1" y="0" width="14" height="13"><path d="M6.33344 0C9.98156 0 12.9147 2.8 12.9147 6.3C12.9147 7.14909 12.7442 7.9898 12.413 8.77376C12.0817 9.55771 11.5963 10.2694 10.9846 10.868C10.373 11.4665 9.64715 11.94 8.8489 12.2613C8.05066 12.5826 7.19578 12.7453 6.33344 12.74C2.75438 12.74 -0.0345306 9.87 -0.0345306 6.3C-0.0345306 2.8 2.75438 0 6.33344 0Z" fill="white"/></mask><g mask="url(#mask7_12698_4691)"><path d="M0 0H12.9147V12.74H0V0Z" fill="#5A4352"/></g></g><mask id="mask8_12698_4691" style="mask-type:luminance" maskUnits="userSpaceOnUse" x="27" y="13" width="14" height="14"><path d="M34.2245 13.648C37.7305 13.648 40.6636 16.448 40.6636 19.948C40.6636 23.518 37.7305 26.388 34.2245 26.388C32.4941 26.3832 30.8365 25.7022 29.6157 24.4947C28.395 23.2871 27.7111 21.6518 27.7144 19.948C27.7144 16.448 30.6475 13.648 34.2245 13.648Z" fill="white"/></mask><g mask="url(#mask8_12698_4691)"><path d="M27.7144 13.648H40.6636V26.388H27.7144V13.648Z" fill="#5A4352"/></g><mask id="mask9_12698_4691" style="mask-type:luminance" maskUnits="userSpaceOnUse" x="0" y="13" width="27" height="14"><path d="M26.7881 13.648V26.388H0V13.648H26.7881Z" fill="white"/></mask><g mask="url(#mask9_12698_4691)"><mask id="mask10_12698_4691" style="mask-type:luminance" maskUnits="userSpaceOnUse" x="13" y="13" width="14" height="14"><path d="M20.3491 13.648C23.9261 13.648 26.7881 16.448 26.7881 19.948C26.7881 23.516 23.9261 26.386 20.3491 26.386C18.6187 26.3812 16.961 25.7002 15.7403 24.4927C14.5196 23.2851 13.8357 21.6498 13.8389 19.946C13.8389 16.448 16.772 13.648 20.3491 13.648Z" fill="white"/></mask><g mask="url(#mask10_12698_4691)"><path d="M13.8389 13.648H26.7881V26.386H13.8389V13.648Z" fill="#5A4352"/></g><mask id="mask11_12698_4691" style="mask-type:luminance" maskUnits="userSpaceOnUse" x="-1" y="13" width="14" height="14"><path d="M6.33344 13.648C9.98156 13.648 12.9147 16.448 12.9147 19.948C12.9147 20.7971 12.7442 21.6378 12.413 22.4218C12.0817 23.2057 11.5963 23.9174 10.9846 24.516C10.373 25.1145 9.64715 25.588 8.8489 25.9093C8.05066 26.2306 7.19578 26.3933 6.33344 26.388C2.75438 26.388 -0.0345306 23.518 -0.0345306 19.948C-0.0345306 16.448 2.75438 13.648 6.33344 13.648Z" fill="white"/></mask><g mask="url(#mask11_12698_4691)"><path d="M0 13.648H12.9147V26.388H0V13.648Z" fill="#5A4352"/></g></g><mask id="mask12_12698_4691" style="mask-type:luminance" maskUnits="userSpaceOnUse" x="49" y="0" width="146" height="40"><path d="M176.745 0.616001L189.562 31.684C191.405 36.212 192.254 37.118 194.661 37.398L194.025 39.418H179.721L180.357 37.328C182.199 37.258 182.906 36.56 182.906 35.586C182.906 35.098 182.552 33.984 182.057 32.87L179.437 26.53H167.115L164.848 32.45C164.424 33.496 163.999 34.61 163.999 35.306C163.999 36.7 164.99 37.258 167.186 37.398L166.548 39.418H155.431L156.069 37.398C158.689 37.118 159.681 35.378 161.167 31.546L173.136 0.616001H176.745ZM63.5131 0.616001C71.2319 0.616001 76.6147 3.612 76.6147 10.438C76.6147 14.2 74.0655 17.126 71.1608 18.658C75.4101 19.704 79.5884 23.118 79.5884 27.784C79.5884 34.89 73.4987 39.418 64.3642 39.418H49.7047L50.3425 37.398C52.2539 37.258 53.2452 35.864 53.2452 33.914V6.188C53.2452 3.542 51.8294 2.708 49.2091 2.636L49.8469 0.616001H63.5131ZM96.1594 0.616001C104.02 0.616001 109.897 4.03 109.897 10.576C109.897 15.802 105.365 19.006 101.682 20.052C102.178 20.47 102.958 21.306 103.807 22.838L106.923 28.48C110.321 34.68 112.448 37.12 114.995 37.398L114.359 39.418H106.214L106.072 39.348C104.02 37.676 102.46 36.142 99.7709 31.128L95.6637 23.396C95.1681 22.49 94.5303 21.792 92.6169 21.792H92.1233V33.844C92.1233 36.492 93.5391 37.328 96.1594 37.398L95.5215 39.416H81.4308L82.0666 37.396C83.98 37.256 84.9712 35.862 84.9712 33.912V6.188C84.9712 3.542 83.5534 2.708 80.9331 2.636L81.5709 0.616001H96.1594ZM130.646 0.616001L130.008 2.636C128.026 2.776 127.034 4.168 127.034 6.12V33.844C127.034 36.492 128.45 37.328 131.07 37.398L130.433 39.418H116.342L116.978 37.398C118.891 37.258 119.882 35.864 119.882 33.914V6.188C119.882 3.542 118.465 2.708 115.846 2.636L116.482 0.616001H130.646ZM163.715 0.616001L162.37 5.422H160.741C160.316 4.448 159.963 4.238 157.838 4.238H150.404V33.844C150.404 36.492 151.606 37.328 153.873 37.398L153.235 39.418H139.143L139.78 37.398C142.047 37.258 143.252 35.864 143.252 33.914V4.236H136.736C135.035 4.236 134.044 4.446 133.124 5.42H131.355L132.842 0.616001H163.715ZM63.8706 20.608H60.3972V33.008C60.3972 35.238 61.7419 36.352 63.7955 36.352H64.0087C68.4714 36.352 71.4431 33.218 71.4431 28.132C71.4431 23.186 68.6116 20.608 63.8666 20.608H63.8706ZM173.136 10.578L168.391 22.978H177.95L173.136 10.578ZM94.8106 3.542C92.8281 3.542 92.1212 4.238 92.1212 6.05V18.936H94.4572C98.4222 18.936 101.963 15.66 101.963 11.202C101.963 6.606 99.2733 3.54 94.8126 3.54L94.8106 3.542ZM63.0866 3.542C61.1041 3.542 60.3952 4.238 60.3952 6.12V17.682H63.2287C66.8403 17.682 69.3184 14.966 69.3184 10.716C69.3184 6.398 67.1937 3.542 63.0866 3.542Z" fill="white"/></mask><g mask="url(#mask12_12698_4691)"><path d="M49.2091 0.616001H194.663V39.416H49.2091V0.616001Z" fill="#5A4352"/></g></g><defs><clipPath id="clip0_12698_4691"><rect width="195" height="40" fill="white"/></clipPath></defs></svg>