<svg xmlns="http://www.w3.org/2000/svg" width="136" height="48" viewBox="0 0 136 48" fill="none"><path fill-rule="evenodd" clip-rule="evenodd" d="M112.362 14.6087C112.226 14.9122 112.089 15.2157 112.089 15.5493C112.089 15.9586 112.21 16.3533 112.362 16.7171L118.69 32.1464C118.812 32.4808 118.995 32.7228 119.269 32.966H105.839C105.929 32.739 105.991 32.5112 105.991 32.2687C105.991 32.132 105.975 32.0105 105.929 31.8893L104.925 29.2945H100.257L99.3281 32.0401C99.2971 32.1382 99.2817 32.2406 99.2825 32.3434C99.2825 32.5712 99.3585 32.7691 99.4653 32.966H88.7109C88.954 32.7235 89.1223 32.4661 89.2439 32.1464L94.9783 16.7171C95.1161 16.3379 95.2368 15.9286 95.2368 15.534C95.2368 15.2003 95.1161 14.8968 94.9783 14.6087H112.362ZM101.458 25.5927H103.541L102.462 22.6647L101.458 25.5927Z" fill="#5A4352"/><path d="M29.4241 14.6087C29.0595 14.9276 28.74 15.276 28.7399 15.7918V31.7819C28.7399 32.2824 29.0594 32.6472 29.4241 32.9654H16.3897C16.7397 32.6472 17.0586 32.2824 17.0586 31.7819V15.7918C17.0585 15.276 16.7397 14.9276 16.3897 14.6087H29.4241Z" fill="#5A4352"/><path d="M46.688 14.6087C46.3226 14.9277 46.0035 15.2915 46.0035 15.8074V21.3295L49.6995 15.8074C49.8063 15.6406 49.8966 15.4435 49.8966 15.2303C49.8966 15.018 49.7908 14.8056 49.6995 14.6087H62.2632C61.723 14.8896 61.2626 15.302 60.9245 15.8074L56.5131 22.1943L62.5969 31.7819C62.9167 32.2978 63.3572 32.6773 63.9046 32.9654H49.2734C49.3795 32.814 49.5165 32.6471 49.5166 32.4657C49.5166 32.2232 49.395 31.9796 49.2734 31.7819L46.0028 26.2289V31.7812C46.0028 32.2817 46.3227 32.6461 46.6873 32.9643H33.9571C34.307 32.6462 34.6416 32.2817 34.6416 31.7812V15.8074C34.6416 15.2923 34.3071 14.9423 33.9571 14.6087H46.688Z" fill="#5A4352"/><path d="M86.7807 20.2976C86.4315 20.0705 86.0506 19.9029 85.6402 19.9029H77.304V21.1016H83.616C84.0426 21.1016 84.4221 20.9496 84.7729 20.7079L84.7735 26.412C84.4228 26.1842 84.0433 26.0173 83.6167 26.0173H77.3047V27.0493H85.6409C86.0505 27.0492 86.4314 26.8818 86.7814 26.6702V32.9654H65.6846C66.0493 32.6619 66.384 32.2826 66.3841 31.7969V15.7918C66.3841 15.2921 66.0493 14.9122 65.6846 14.6087H86.7807V20.2976Z" fill="#5A4352"/><path fill-rule="evenodd" clip-rule="evenodd" d="M136 48H0V0H136V48ZM68.1802 1.73913C50.0654 1.73914 31.4488 3.68081 14.641 10.7962C9.65224 12.9046 1.74368 17.6381 1.74359 23.9039C1.74359 30.1542 9.63751 34.9027 14.641 37.0119C31.448 44.1273 50.0801 46.0696 68.1802 46.0696C86.3413 46.0696 104.714 43.9913 121.612 37.0119C127.026 34.7814 134.236 30.5335 134.236 23.9039C134.236 17.2589 127.011 13.0266 121.612 10.7962C104.714 3.81753 86.3406 1.73913 68.1802 1.73913Z" fill="#5A4352"/></svg>