<svg xmlns="http://www.w3.org/2000/svg" width="56" height="56" viewBox="0 0 56 56" fill="none"><g clip-path="url(#clip0_12698_4758)"><path fill-rule="evenodd" clip-rule="evenodd" d="M40.9948 3.17421C49.9105 7.86271 56 17.2106 56 27.9854C56 38.7603 49.9105 48.1373 40.9948 52.7967V49.5933C44.4037 47.5549 47.2882 44.701 49.3861 41.3229L40.9948 37.9158V32.7322L50.2019 39.9251C52.1249 36.3723 53.2029 32.3245 53.2029 27.9854C53.2029 18.8414 48.308 10.804 40.9948 6.37753V3.17421ZM28.0291 0C32.6909 0 37.0905 1.13573 40.9948 3.17421V6.37753C37.411 4.22257 33.2154 2.94124 28.7867 2.79563L31.9917 25.714L40.9948 32.7322V37.9158L27.9709 32.6448L15.0343 37.9449V32.7904L24.0957 25.714L27.2716 2.79563C22.7846 2.94124 18.6181 4.22257 15.0343 6.37753V3.17421C18.9095 1.13573 23.3382 0 28.0291 0ZM40.9948 52.7967C37.0905 54.8352 32.6909 56 28.0291 56C23.3382 56 18.9095 54.8352 15.0343 52.8258V49.5933C18.8221 51.8939 23.2799 53.2044 28.0291 53.2044C32.7492 53.2044 37.1779 51.8939 40.9948 49.5933V52.7967ZM15.0343 52.8258C6.08949 48.1373 0 38.7603 0 27.9854C0 17.2106 6.08949 7.86271 15.0343 3.17421V6.37753C7.69199 10.804 2.79709 18.8123 2.79709 27.9854C2.79709 32.3245 3.90427 36.4306 5.82726 39.9834L15.0343 32.7904V37.9449L6.67222 41.3812C8.77003 44.7301 11.6254 47.5549 15.0343 49.5933V52.8258Z" fill="#5A4352"/></g><defs><clipPath id="clip0_12698_4758"><rect width="56" height="56" fill="white"/></clipPath></defs></svg>