<svg preserveAspectRatio="none" width="100%" height="100%" overflow="visible" style="display: block;" viewBox="0 0 11.0008 6.00039" fill="none" xmlns="http://www.w3.org/2000/svg">
<path id="Vector" d="M10.8541 0.85375L5.85414 5.85375C5.80771 5.90024 5.75256 5.93712 5.69186 5.96228C5.63116 5.98744 5.5661 6.00039 5.50039 6.00039C5.43469 6.00039 5.36962 5.98744 5.30892 5.96228C5.24822 5.93712 5.19308 5.90024 5.14664 5.85375L0.146644 0.85375C0.0766381 0.783823 0.0289543 0.694696 0.00962914 0.597654C-0.00969606 0.500611 0.000206247 0.400016 0.0380825 0.308605C0.0759587 0.217193 0.140106 0.139075 0.222403 0.08414C0.3047 0.0292046 0.401446 -7.77138e-05 0.500394 1.549e-07H10.5004C10.5993 -7.77138e-05 10.6961 0.0292046 10.7784 0.08414C10.8607 0.139075 10.9248 0.217193 10.9627 0.308605C11.0006 0.400016 11.0105 0.500611 10.9912 0.597654C10.9718 0.694696 10.9241 0.783823 10.8541 0.85375Z" fill="var(--fill-0, #F4F4F4)"/>
</svg>
