<svg preserveAspectRatio="none" width="100%" height="100%" overflow="visible" style="display: block;" viewBox="0 0 32 32" fill="none" xmlns="http://www.w3.org/2000/svg">
<path id="Vector" d="M15.9644 0.00580455L0 0.0174129V32L31.9811 31.971L31.9985 16.0145C32.0043 7.23236 31.9927 0.040631 31.9695 0.0232176C31.9404 -2.54046e-07 24.7425 -0.00580437 15.9644 0.00580455ZM9.64371 1.26537C9.64371 1.27698 9.34162 1.4337 8.97562 1.60784L8.30753 1.92708L7.63944 1.60203C7.27345 1.4279 6.97135 1.27118 6.97135 1.25957C6.97135 1.24796 7.57554 1.23635 8.30753 1.23635C9.04533 1.23635 9.64371 1.24796 9.64371 1.26537ZM30.703 1.306C30.7204 1.34664 30.7262 3.23308 30.7204 5.50263L30.703 9.6238L30.4067 9.01433C28.8382 5.76963 25.9509 2.92545 22.7499 1.47433C22.5407 1.38146 22.3664 1.28859 22.3664 1.27118C22.3664 1.25376 24.2371 1.23635 26.5202 1.23635C29.7909 1.23635 30.6856 1.25376 30.703 1.306ZM15.337 9.618L14.9419 8.83439C13.7917 6.56485 12.1476 4.59713 10.2014 3.17504C9.89932 2.95447 9.64952 2.75712 9.64952 2.7339C9.64371 2.68166 10.1666 2.44368 10.8521 2.18828C12.1302 1.71232 13.8788 1.34083 15.0349 1.306L15.337 1.29439V9.618ZM18.4973 1.47433C19.392 1.63105 20.4609 1.92128 21.2917 2.25213C21.9888 2.51914 23.3773 3.20406 23.5864 3.37239C23.7026 3.47107 23.6503 3.5117 21.5531 5.11954C20.1414 6.19917 19.3165 6.86668 19.1654 7.06403C18.3869 8.03338 18.2882 9.17685 18.8808 10.3494L19.0492 10.6802L17.8757 11.8469C17.2309 12.4912 16.679 13.0194 16.6557 13.0194C16.6325 13.0194 16.6151 10.3784 16.6151 7.1511V1.27698L17.2076 1.31761C17.5388 1.34083 18.1139 1.41048 18.4973 1.47433ZM3.07902 1.47433C8.64448 2.42046 13.2049 6.47198 14.7618 11.8585C14.9942 12.6653 15.2324 13.8553 15.2092 14.099C15.1917 14.2906 15.0349 14.1455 8.71419 7.82441C5.15299 4.26628 2.26569 1.35244 2.30055 1.35244C2.3354 1.35244 2.68978 1.40468 3.07902 1.47433ZM14.2274 15.2193C14.0066 15.289 11.9036 14.8072 10.9508 14.4589C9.48685 13.9249 7.76144 12.9323 6.56469 11.9282C5.45509 10.9995 4.26996 9.64702 3.46244 8.37584C3.04416 7.71993 2.35864 6.28623 2.09141 5.50263C1.74865 4.49846 1.51627 3.52911 1.37103 2.48431C1.34199 2.26954 1.6557 2.57138 7.81373 8.72411C11.3749 12.2822 14.2622 15.2077 14.2274 15.2193ZM24.8935 4.31271L25.1201 4.54489L23.3076 6.36169C21.5705 8.10303 21.495 8.18429 21.495 8.39906C21.495 8.51515 21.5182 8.66606 21.5531 8.72411C21.6228 8.85181 21.9075 8.95629 22.0876 8.91565C22.1631 8.89824 23.0403 8.07401 24.0337 7.07564L25.8521 5.27045L26.6364 6.05405L24.818 7.87085C23.11 9.58317 23.0055 9.69926 23.0055 9.89661C23.0055 10.0127 23.0229 10.152 23.0403 10.2042C23.0868 10.3203 23.3598 10.4654 23.5399 10.4654C23.6329 10.4654 24.179 9.95465 25.5152 8.62543L27.3626 6.77961L27.6589 7.07564L27.9551 7.37747L26.2297 9.57156C25.277 10.7847 24.4172 11.8585 24.3184 11.963C23.9059 12.4041 23.3482 12.6015 22.8138 12.4912C22.5175 12.4274 21.9191 12.1487 21.5822 11.9224C21.4776 11.8527 21.3149 11.8005 21.1755 11.8005C20.9547 11.8005 20.9024 11.8469 19.1712 13.5708L17.3993 15.3412H16.6151V14.5576L18.416 12.7582C19.9497 11.22 20.2169 10.9298 20.2169 10.7847C20.2169 10.6918 20.1124 10.448 19.9845 10.2333C19.4849 9.40323 19.3862 8.7183 19.6941 8.10883C19.787 7.91729 19.9381 7.69091 20.0252 7.60965C20.2808 7.36586 24.5392 4.09215 24.6031 4.08634C24.6379 4.08054 24.7715 4.18502 24.8935 4.31271ZM1.60341 8.96209L1.27808 9.6238V6.96536L1.60341 7.62706L1.92874 8.29458L1.60341 8.96209ZM28.8266 8.73572C29.8258 10.4422 30.4997 12.6769 30.703 14.9465L30.7379 15.3412H18.8517L21.2452 12.9498L21.7332 13.1819C22.3606 13.478 22.7324 13.565 23.3018 13.5302C23.9176 13.4954 24.4811 13.2226 24.9923 12.706C25.1956 12.5086 26.0671 11.4406 26.9269 10.3319C27.7925 9.22909 28.5128 8.3236 28.5361 8.31779C28.5593 8.31779 28.6871 8.50934 28.8266 8.73572ZM3.2533 10.3087C3.79939 11.0285 4.94966 12.2358 5.66423 12.8453C6.64602 13.6695 7.87763 14.4705 9.03371 15.0336L9.67275 15.3412H1.27808V15.1671C1.27808 14.3893 1.62665 12.5144 1.96941 11.4638C2.21341 10.7266 2.65492 9.65282 2.72464 9.65282C2.74207 9.65282 2.98025 9.94885 3.2533 10.3087ZM8.81876 17.0419C7.84277 17.5295 6.54726 18.3769 5.75137 19.0444C4.9729 19.6945 3.84005 20.8845 3.23006 21.6855L2.71302 22.3646L2.48645 21.8712C2.17274 21.1747 1.7835 19.9615 1.60341 19.1431C1.44656 18.4118 1.27808 17.2335 1.27808 16.8446V16.6182H9.66695L8.81876 17.0419ZM19.055 18.2783C19.9671 19.1896 20.7863 19.9732 20.8792 20.0254C21.0128 20.095 21.0942 20.1009 21.2975 20.0486C23.0113 19.6133 25.5268 21.1573 26.5492 23.2643C26.8804 23.955 26.9675 24.2743 26.9675 24.8605C26.9675 25.7544 26.5376 26.4277 25.7475 26.7934C25.521 26.8979 25.3699 26.9211 24.8355 26.9153C24.2661 26.9153 24.1441 26.8979 23.72 26.7354C22.4187 26.242 21.0186 24.9244 20.4203 23.6242C20.3157 23.3978 20.1821 23.0495 20.124 22.858C20.0136 22.4691 19.9846 21.6913 20.0659 21.2153L20.1182 20.9077L18.3637 19.1547L16.6151 17.4018V16.6182H17.3993L19.055 18.2783ZM30.703 17.0071C30.4939 19.3056 29.8374 21.4765 28.8149 23.2353C28.4664 23.8331 28.0597 24.4542 28.0074 24.4542C27.99 24.4542 27.9435 24.2801 27.9087 24.0595C27.6414 22.4168 25.9509 20.3621 24.1441 19.4914C23.3134 19.0909 22.8719 18.9864 21.9714 18.969L21.1987 18.9574L20.0659 17.8313C19.4443 17.216 18.9388 16.6878 18.9388 16.6646C18.9388 16.6356 21.5938 16.6182 24.8355 16.6182H30.7379L30.703 17.0071ZM7.84277 23.2062C4.28157 26.7644 1.36522 29.6666 1.35941 29.6608C1.3536 29.655 1.38265 29.4054 1.42913 29.1036C1.63827 27.7047 2.10884 26.2013 2.75949 24.8895C4.53138 21.2966 7.61621 18.6033 11.3924 17.3553C12.2347 17.0767 13.6639 16.7575 14.117 16.7401C14.3087 16.7343 13.9718 17.0825 7.84277 23.2062ZM15.2092 18.0229C14.9884 19.7062 14.3552 21.5926 13.5186 23.0902C11.6712 26.3987 8.77229 28.7843 5.17042 29.9684C4.36872 30.2354 3.24749 30.4966 2.55616 30.5779L2.23664 30.6185L8.71419 24.1408C12.2754 20.5768 15.2092 17.663 15.2266 17.663C15.244 17.663 15.2382 17.8255 15.2092 18.0229ZM17.8467 20.0834L18.9853 21.2327L18.9795 21.9002C18.9795 22.7129 19.1131 23.3107 19.4907 24.0769C20.1705 25.4874 21.6112 26.9153 22.9648 27.5306C23.3773 27.7163 24.1151 27.9369 24.3242 27.9369C24.5508 27.9369 24.4753 28.0298 24.0105 28.3316C21.8959 29.6782 19.4617 30.5083 17.2134 30.6476L16.6151 30.6824V24.8141C16.6151 21.581 16.6325 18.94 16.6615 18.94C16.6848 18.94 17.2192 19.4566 17.8467 20.0834ZM1.60341 24.3323L1.27808 24.994V23.6648L1.28389 22.3356L1.92293 23.6706L1.60341 24.3323ZM15.337 26.5264V30.6824L14.8025 30.6476C13.6871 30.5721 12.3974 30.3051 11.2471 29.9104C10.4454 29.6318 9.68437 29.3125 9.66695 29.2371C9.65533 29.2081 9.89351 29.0107 10.184 28.7959C12.1243 27.3913 13.9079 25.2552 14.9768 23.0495C15.1569 22.6722 15.3137 22.3646 15.3254 22.3646C15.3312 22.3646 15.337 24.2336 15.337 26.5264ZM30.6856 30.6766C30.6623 30.6998 28.7685 30.7172 26.4853 30.7114L22.3374 30.694L22.7382 30.5025C26.0729 28.9236 28.8382 26.2013 30.4067 22.945L30.703 22.3356L30.7204 26.48C30.7262 28.7611 30.7088 30.6534 30.6856 30.6766ZM8.98143 30.3573L9.66695 30.694L8.98724 30.7114C8.61543 30.7172 7.99963 30.7172 7.62782 30.7114L6.94812 30.694L7.6104 30.3631C7.97639 30.1832 8.28429 30.0323 8.2901 30.0323C8.29591 30.0265 8.60381 30.1774 8.98143 30.3573Z" fill="var(--fill-0, #F4F4F4)"/>
</svg>
