<svg width="24" height="24" viewBox="0 0 24 24" fill="none" xmlns="http://www.w3.org/2000/svg">
<path fill-rule="evenodd" clip-rule="evenodd" d="M12 0C18.6274 0 24 5.37258 24 12C24 18.6274 18.6274 24 12 24C5.37258 24 0 18.6274 0 12C0 5.37258 5.37258 0 12 0ZM18.6006 7.2C18.4414 7.2 18.2884 7.2632 18.1758 7.37578L9.00059 16.5521L5.2248 12.7758C5.11228 12.6633 4.95969 12.6001 4.80059 12.6C4.64137 12.6 4.48837 12.6632 4.37578 12.7758C4.2632 12.8884 4.2 13.0414 4.2 13.2006C4.20007 13.3597 4.26328 13.5123 4.37578 13.6248L8.57578 17.8248C8.63143 17.8805 8.69759 17.9247 8.77031 17.9549C8.84315 17.9851 8.92174 18.0006 9.00059 18.0006C9.07935 18.0006 9.15751 17.985 9.23027 17.9549C9.30303 17.9247 9.36914 17.8805 9.42481 17.8248L19.0248 8.22481C19.1373 8.11228 19.2005 7.95971 19.2006 7.80059C19.2006 7.64137 19.1374 7.48837 19.0248 7.37578C18.9123 7.26328 18.7597 7.20007 18.6006 7.2Z" fill="#E1F7D8"/>
</svg>
