<svg preserveAspectRatio="none" width="100%" height="100%" overflow="visible" style="display: block;" viewBox="0 0 25.0011 18.0013" fill="none" xmlns="http://www.w3.org/2000/svg">
<path id="Vector" d="M24.7081 1.70806L8.70806 17.7081C8.61518 17.801 8.50489 17.8748 8.3835 17.9251C8.2621 17.9754 8.13197 18.0013 8.00056 18.0013C7.86914 18.0013 7.73901 17.9754 7.61762 17.9251C7.49622 17.8748 7.38593 17.801 7.29306 17.7081L0.293056 10.7081C0.105415 10.5204 0 10.2659 0 10.0006C0 9.73519 0.105415 9.4807 0.293056 9.29306C0.480697 9.10541 0.735192 9 1.00056 9C1.26592 9 1.52042 9.10541 1.70806 9.29306L8.00056 15.5868L23.2931 0.293056C23.4807 0.105415 23.7352 -1.97711e-09 24.0006 0C24.2659 1.97712e-09 24.5204 0.105415 24.7081 0.293056C24.8957 0.480696 25.0011 0.735192 25.0011 1.00056C25.0011 1.26592 24.8957 1.52042 24.7081 1.70806Z" fill="var(--fill-0, #268900)"/>
</svg>
