<svg preserveAspectRatio="none" width="100%" height="100%" overflow="visible" style="display: block;" viewBox="0 0 25.0011 20.0011" fill="none" xmlns="http://www.w3.org/2000/svg">
<path id="Vector" fill-rule="evenodd" clip-rule="evenodd" d="M19.0342 20.0005C19.023 20.0009 19.0118 20.0011 19.0006 20.0011C18.8692 20.0011 18.7391 19.9752 18.6177 19.9249C18.4963 19.8747 18.386 19.801 18.2931 19.7081L11.5006 12.9146L4.70816 19.7081C4.61525 19.801 4.50495 19.8747 4.38356 19.9249C4.26217 19.9752 4.13206 20.0011 4.00066 20.0011C3.86927 20.0011 3.73916 19.9752 3.61777 19.9249C3.49637 19.8747 3.38607 19.801 3.29316 19.7081C3.20025 19.6151 3.12655 19.5048 3.07627 19.3835C3.02599 19.2621 3.00011 19.132 3.00011 19.0006C3.00011 18.8692 3.02599 18.7391 3.07627 18.6177C3.12655 18.4963 3.20025 18.386 3.29316 18.2931L10.0867 11.5005L10.0006 11.4143L8.58681 10.0006L0.293056 1.70806C0.105415 1.52042 0 1.26592 0 1.00056C0 0.735192 0.105415 0.480697 0.293056 0.293056C0.480697 0.105415 0.735192 0 1.00056 0C1.01163 0 1.02269 0.000183582 1.03372 0.000549316H5.96739C5.97842 0.000183582 5.98948 0 6.00056 0C6.26592 0 6.52042 0.105415 6.70806 0.293056L14.0006 7.58671L21.2932 0.293056C21.4808 0.105415 21.7353 0 22.0007 0C22.266 0 22.5205 0.105415 22.7082 0.293056C22.8958 0.480697 23.0012 0.735192 23.0012 1.00056C23.0012 1.26592 22.8958 1.52042 22.7082 1.70806L15.4144 9.00068L16.4143 10.0006L24.7081 18.2931C24.801 18.386 24.8747 18.4963 24.9249 18.6177C24.9752 18.7391 25.0011 18.8692 25.0011 19.0006C25.0011 19.132 24.9752 19.2621 24.9249 19.3835C24.8747 19.5048 24.801 19.6151 24.7081 19.7081C24.6151 19.801 24.5048 19.8747 24.3835 19.9249C24.2621 19.9752 24.132 20.0011 24.0006 20.0011C23.9893 20.0011 23.9781 20.0009 23.9669 20.0005H19.0342ZM21.5858 18.0005L15.0006 11.4143L13.5868 10.0006L5.58559 2.00055H3.41529L10.0006 8.58681L11.4143 10.0006L19.4155 18.0005H21.5858Z" fill="var(--fill-0, #E0D2DB)"/>
</svg>
